<?xml version="1.0" standalone="no"?>
<!DOCTYPE svg PUBLIC "-//W3C//DTD SVG 20010904//EN"
 "http://www.w3.org/TR/2001/REC-SVG-20010904/DTD/svg10.dtd">
<svg version="1.0" xmlns="http://www.w3.org/2000/svg"
 width="402.000000pt" height="463.000000pt" viewBox="0 0 402.000000 463.000000"
 preserveAspectRatio="xMidYMid meet">

<g transform="translate(0.000000,463.000000) scale(0.100000,-0.100000)"
fill="#000000" stroke="none">
<path d="M453 4600 c-12 -5 -29 -20 -39 -34 l-16 -26 -28 20 c-31 22 -50 12
-50 -27 0 -20 -5 -23 -39 -23 -44 0 -83 -26 -100 -67 -11 -28 -38 -40 -134
-60 -15 -3 -27 -8 -27 -12 0 -3 11 -45 24 -93 16 -55 54 -143 106 -242 l82
-156 -15 -60 c-24 -95 -4 -141 76 -175 26 -11 43 -28 58 -58 12 -23 82 -149
156 -281 l134 -238 -7 -57 c-5 -45 -3 -59 10 -70 10 -8 16 -29 16 -52 0 -43
24 -73 51 -66 16 4 22 -5 35 -51 8 -32 22 -77 30 -101 18 -56 18 -61 -3 -61
-9 0 -36 -9 -60 -21 -75 -36 -80 -81 -14 -125 l38 -25 6 -487 c3 -268 10 -561
16 -652 19 -293 41 -742 41 -823 0 -78 0 -80 -45 -139 -25 -33 -45 -66 -45
-73 0 -29 44 -65 117 -94 43 -18 89 -38 103 -45 53 -29 152 -43 500 -73 163
-14 296 -18 650 -16 284 1 463 5 495 12 28 7 95 18 150 27 230 34 387 90 474
169 32 29 41 44 41 70 0 34 -29 64 -75 79 -19 5 -20 15 -21 193 0 104 -4 229
-8 279 l-7 91 62 -31 c85 -42 194 -48 287 -17 168 57 322 180 382 305 26 56
34 65 64 70 37 7 86 55 86 85 0 24 -51 99 -96 143 -45 43 -150 108 -174 108
-29 0 -64 -47 -62 -83 7 -104 5 -113 -23 -171 -87 -171 -365 -302 -511 -241
l-36 15 4 87 c3 79 7 97 44 173 23 47 82 142 133 212 50 70 91 130 91 133 0 3
16 29 35 58 89 134 111 276 66 416 -19 58 -22 77 -13 90 42 58 73 124 88 184
14 59 15 82 6 146 -25 174 -51 216 -171 273 -61 30 -75 32 -193 36 -71 2 -128
6 -128 8 0 8 82 180 96 202 l14 22 73 -36 c54 -28 88 -38 138 -42 60 -4 71 -1
142 33 57 28 93 54 136 101 75 80 96 135 96 259 0 82 -3 96 -33 157 -55 113
-141 168 -259 168 -118 0 -201 -52 -280 -174 -72 -111 -113 -249 -113 -385 0
-53 -2 -56 -81 -150 -104 -123 -250 -283 -255 -278 -2 2 18 84 46 183 27 98
56 213 65 254 15 67 22 81 70 130 113 117 191 265 202 385 8 88 -25 193 -78
246 -80 80 -218 90 -352 26 -96 -47 -206 -151 -243 -231 -68 -150 -27 -312
108 -423 45 -37 138 -83 168 -83 8 0 -106 -207 -143 -260 -13 -19 -14 -18 -44
9 -29 26 -31 31 -22 67 27 117 -1 195 -80 225 -34 12 -46 24 -62 58 -23 53
-24 49 4 53 20 3 22 7 19 63 -3 73 -26 158 -48 176 -14 11 -19 10 -34 -9 -24
-29 -80 -165 -80 -193 0 -12 7 -27 15 -33 13 -10 13 -17 -4 -60 -17 -45 -23
-51 -63 -63 -61 -17 -86 -48 -100 -120 -9 -51 -14 -60 -29 -56 -10 3 -23 22
-30 42 -23 71 -71 153 -113 196 -31 31 -41 46 -33 54 15 15 14 101 -2 137 -6
17 -25 38 -41 48 -34 20 -116 32 -154 22 -35 -9 -76 -73 -84 -132 -7 -46 -8
-48 -57 -64 -81 -28 -151 -67 -205 -115 -28 -25 -55 -45 -60 -45 -21 0 -32
-42 -21 -80 9 -31 8 -42 -9 -75 -11 -22 -20 -46 -20 -54 0 -42 -11 9 -25 119
-28 216 -55 403 -66 455 -6 28 -44 133 -84 235 -40 102 -79 204 -87 228 -15
50 -28 55 -28 9 0 -17 -8 -77 -19 -132 -33 -179 -34 -214 -6 -460 14 -127 39
-329 55 -451 36 -265 36 -252 9 -228 -17 15 -20 26 -15 57 6 38 -14 97 -34 97
-6 0 -10 15 -10 33 0 38 -25 67 -58 67 -12 0 -22 4 -22 9 0 69 -62 424 -107
611 -22 95 -23 110 -12 159 17 71 0 106 -51 106 -33 0 -35 2 -42 45 -4 25 -17
86 -29 136 l-21 90 21 35 c29 47 27 82 -9 122 -23 27 -30 44 -30 76 0 66 -44
96 -107 71z m-178 -280 c-3 -5 -12 -10 -18 -10 -7 0 -6 4 3 10 19 12 23 12 15
0z m-115 -30 c9 -16 8 -18 -5 -14 -8 4 -15 12 -15 20 0 20 7 17 20 -6z m136
-16 c-3 -9 -6 -22 -6 -30 0 -11 -4 -12 -18 -3 -27 17 -23 49 6 49 18 0 23 -4
18 -16z m109 -163 c10 -17 -15 -23 -31 -7 -14 15 -14 16 5 16 11 0 22 -4 26
-9z m-215 -25 c0 -2 -7 -7 -16 -10 -8 -3 -12 -2 -9 4 6 10 25 14 25 6z m790
-46 c5 8 13 -4 23 -31 8 -24 34 -91 56 -149 37 -97 44 -140 20 -140 -5 0 -9 6
-9 13 0 7 -6 22 -14 33 -14 18 -15 18 -24 -5 -8 -24 -10 -22 -34 30 l-25 54
-12 -43 c-7 -23 -16 -40 -20 -37 -9 5 -6 -63 3 -72 6 -6 30 77 27 95 -4 24 7
11 28 -33 22 -47 40 -52 42 -12 0 18 3 17 15 -10 18 -42 32 -49 43 -21 7 19
11 12 25 -47 9 -39 23 -133 32 -210 9 -77 19 -147 21 -155 3 -8 7 -46 10 -85
3 -38 9 -75 14 -81 5 -6 6 -13 3 -16 -3 -3 4 -52 15 -109 11 -57 22 -117 25
-134 11 -75 19 -132 21 -150 1 -11 10 -46 19 -77 10 -32 14 -67 11 -79 -5 -14
-3 -19 3 -15 6 4 8 -2 4 -16 -3 -13 -1 -19 6 -15 11 7 11 -18 0 -29 -4 -3 -33
-3 -65 1 l-59 6 -19 52 c-10 29 -20 55 -21 60 -1 4 -2 8 -4 10 -1 1 -3 10 -5
20 -2 10 -11 27 -19 36 -9 10 -16 24 -16 32 0 8 -18 46 -41 84 -22 39 -43 84
-45 100 -62 463 -85 654 -90 760 -2 50 -6 115 -9 146 -6 69 16 210 36 231 8 9
16 12 18 6 2 -6 6 -5 11 2z m1945 0 c4 -6 -6 -10 -22 -9 -25 0 -26 1 -8 9 11
5 21 9 22 9 1 1 5 -3 8 -9z m-2215 -76 c0 -19 -5 -42 -11 -52 -9 -15 -5 -47
19 -148 41 -171 79 -371 92 -480 14 -123 13 -144 -5 -144 -9 0 -44 -15 -78
-32 -34 -18 -65 -34 -68 -36 -4 -2 -25 30 -47 70 -21 40 -68 125 -104 188 -35
63 -88 159 -118 213 -47 85 -59 101 -92 114 -72 29 -96 91 -64 167 17 41 28
48 86 57 110 17 212 53 319 114 52 30 71 21 71 -31z m-100 42 c0 -2 -8 -10
-17 -17 -16 -13 -17 -12 -4 4 13 16 21 21 21 13z m2342 -19 c52 -22 87 -80
100 -165 l11 -69 -39 -72 c-101 -188 -257 -267 -389 -199 -85 44 -125 106
-125 193 0 83 70 198 158 259 104 72 198 90 284 53z m-282 -22 c-7 -8 -17 -15
-23 -15 -6 0 -2 7 9 15 25 19 30 19 14 0z m-2143 -11 c-3 -3 -12 -4 -19 -1 -8
3 -5 6 6 6 11 1 17 -2 13 -5z m2103 -13 c0 -5 -7 -11 -14 -14 -10 -4 -13 -1
-9 9 6 15 23 19 23 5z m-2233 -27 c-3 -3 -12 -4 -19 -1 -8 3 -5 6 6 6 11 1 17
-2 13 -5z m2187 -3 c3 -5 -2 -15 -12 -22 -15 -12 -16 -12 -5 2 7 9 10 19 6 22
-3 4 -4 7 0 7 3 0 8 -4 11 -9z m506 -57 c0 -8 -5 -12 -10 -9 -6 4 -8 11 -5 16
9 14 15 11 15 -7z m-570 -58 c0 -2 -7 -7 -16 -10 -8 -3 -12 -2 -9 4 6 10 25
14 25 6z m972 -44 c-8 -6 -2 -13 22 -24 46 -22 104 -75 123 -111 27 -54 32
-86 22 -150 -20 -127 -84 -217 -187 -265 -92 -42 -175 -24 -236 51 -28 36 -31
45 -30 110 1 139 110 317 229 373 48 23 84 33 57 16z m-1106 -194 l7 -66 -29
-4 c-16 -2 -46 -1 -68 1 l-38 3 6 40 c6 38 46 127 70 157 16 20 43 -49 52
-131z m-595 102 c36 -10 77 -45 66 -56 -12 -12 -133 -8 -164 5 -83 35 0 78 98
51z m-68 -74 c19 -6 21 -26 8 -74 -6 -18 -6 -32 -1 -32 5 0 12 23 16 50 l7 50
38 0 c38 0 39 -1 39 -37 0 -21 -9 -49 -19 -62 -18 -23 -19 -23 -91 -11 -40 7
-69 15 -64 19 5 3 10 31 11 61 1 55 1 55 -14 26 -9 -17 -13 -40 -9 -58 5 -24
3 -29 -12 -26 -23 4 -27 47 -8 92 l15 36 33 -14 c18 -8 41 -17 51 -20z m157
-45 c0 -51 -17 -81 -46 -81 -17 0 -17 5 -2 33 6 12 11 39 9 60 -1 31 1 37 19
37 17 0 20 -6 20 -49z m686 -43 c3 -4 -1 -5 -10 -4 -8 1 -18 5 -22 8 -3 4 1 5
10 4 8 -1 18 -5 22 -8z m-846 -42 c36 -9 85 -15 109 -16 38 0 49 -5 83 -40 40
-43 65 -85 97 -169 l20 -49 -22 -15 c-122 -78 -406 -27 -607 110 -35 24 -55
45 -55 58 0 27 79 84 162 118 74 30 96 30 213 3z m618 -73 c5 -29 6 -50 1 -47
-4 2 -13 -5 -19 -16 -17 -31 -35 -10 -33 37 1 21 2 46 2 55 1 13 26 29 38 24
1 -1 5 -24 11 -53z m116 -44 c31 -14 37 -36 20 -70 -20 -40 -66 -54 -180 -54
-93 0 -104 2 -142 28 -23 15 -42 31 -42 36 0 18 54 61 78 61 19 0 23 -4 19
-20 -7 -28 19 -40 88 -40 66 0 138 31 129 55 -7 18 -3 19 30 4z m-1081 -62
c126 -88 206 -123 345 -152 119 -24 194 -15 325 40 14 6 17 2 17 -25 0 -61
-44 -82 -180 -88 -81 -3 -117 -1 -154 12 -26 9 -76 19 -110 22 -76 7 -142 30
-261 91 -62 31 -85 57 -85 94 0 23 19 47 38 49 2 0 31 -19 65 -43z m1142 -72
c-14 -95 -12 -92 -63 -99 -26 -4 -59 -9 -73 -12 -24 -5 -27 -2 -32 33 -3 21
-8 46 -12 56 -6 14 -1 17 30 17 20 0 45 5 57 11 11 6 22 8 24 6 8 -8 8 -60 -1
-87 -6 -21 -5 -23 6 -12 8 7 14 34 15 61 0 27 7 58 17 71 9 14 17 31 18 40 0
8 5 2 10 -15 5 -16 7 -48 4 -70z m-386 32 c6 -8 8 -33 5 -64 -5 -35 -3 -53 6
-58 9 -6 11 -4 6 4 -5 7 -5 33 -1 57 5 37 10 44 23 39 9 -4 43 -11 75 -15 76
-11 89 -23 85 -74 l-3 -41 -75 2 c-96 2 -155 22 -154 52 4 118 7 128 33 98z
m-788 -72 c58 -30 217 -95 227 -94 4 1 16 0 27 -1 15 -1 16 -3 5 -7 -8 -3 -31
-19 -51 -34 -20 -16 -43 -29 -50 -29 -12 0 -237 105 -247 114 -5 5 26 76 33
76 3 0 28 -11 56 -25z m-515 -47 c4 -7 4 -10 0 -6 -5 4 -19 3 -32 -2 -13 -5
-24 -7 -24 -4 0 3 25 16 47 23 1 1 5 -5 9 -11z m62 -4 c12 -8 22 -22 22 -31 0
-11 -6 -8 -21 11 -11 14 -24 24 -29 21 -5 -3 -11 -1 -15 5 -10 15 18 12 43 -6z
m1881 -39 c18 -20 18 -22 -16 -141 l-35 -121 -71 -34 c-39 -19 -84 -40 -100
-47 l-29 -13 5 63 c6 84 37 192 76 264 l31 60 60 -6 c41 -4 66 -12 79 -25z
m-2009 21 c0 -2 -7 -7 -16 -10 -8 -3 -12 -2 -9 4 6 10 25 14 25 6z m-55 -28
c-11 -6 -28 -20 -37 -32 -10 -11 -18 -16 -18 -9 0 14 48 53 64 53 6 0 2 -6 -9
-12z m1294 -55 c-24 -26 -50 -48 -57 -49 -7 -2 -47 15 -88 35 l-75 38 88 2
c71 1 135 9 172 20 2 0 -16 -20 -40 -46z m-217 1 c156 -70 224 -137 242 -236
9 -48 -7 -80 -37 -76 -12 2 -21 9 -19 16 2 14 -8 15 -28 2 -13 -9 -13 -10 0
-10 13 0 13 -2 1 -9 -23 -15 -92 -3 -144 24 -77 39 -182 132 -211 185 -31 58
-32 79 -5 114 31 40 99 36 201 -10z m537 -3 c9 -5 27 -7 40 -4 14 2 22 1 18
-3 -9 -9 21 -37 32 -30 14 9 40 -4 51 -24 7 -12 6 -18 -3 -17 -31 1 -48 -4
-43 -12 4 -5 -4 -7 -16 -3 -12 3 -19 1 -15 -5 3 -5 0 -10 -8 -10 -8 0 -12 3
-10 7 2 3 -5 6 -15 6 -10 0 -17 -3 -14 -7 7 -12 -20 -26 -64 -33 -31 -5 -41
-3 -36 5 4 8 0 9 -16 4 -15 -5 -20 -3 -16 3 3 6 2 13 -3 16 -5 4 -13 1 -17 -5
-5 -8 -3 -9 6 -4 9 5 11 4 6 -4 -4 -6 -12 -9 -17 -5 -5 3 -24 7 -42 9 -48 6
-66 10 -73 18 -11 10 17 56 30 51 16 -6 53 22 43 32 -4 5 -12 2 -17 -6 -6 -9
-10 -10 -10 -3 0 19 20 26 36 12 12 -10 15 -10 12 1 -2 8 2 14 9 15 6 0 15 3
19 7 8 9 111 0 133 -11z m669 -5 c52 -27 78 -76 40 -76 -5 0 -35 -18 -67 -40
-59 -41 -116 -103 -152 -164 -12 -20 -24 -36 -27 -36 -4 0 -15 25 -25 55 l-18
56 102 109 c56 61 106 110 111 110 5 0 21 -6 36 -14z m-1426 -101 c9 -16 55
-68 103 -114 48 -46 84 -78 80 -71 -5 8 1 7 15 -3 13 -9 57 -26 99 -39 41 -12
69 -24 63 -26 -7 -2 -12 -7 -12 -11 0 -9 43 -6 59 4 15 9 14 -8 -1 -24 -11
-11 -10 -12 1 -6 10 6 12 4 6 -5 -20 -32 -203 24 -219 67 -3 8 -10 11 -16 8
-6 -3 -25 4 -43 16 -51 36 -177 161 -193 192 -17 31 -10 65 15 84 13 10 17 7
22 -15 3 -15 13 -40 21 -57z m1752 20 c64 -17 131 -52 164 -88 57 -61 89 -262
58 -366 -18 -60 -62 -141 -76 -141 -6 0 -10 13 -10 29 0 16 -3 36 -6 45 -4 12
0 16 17 17 l24 1 -25 7 c-17 5 -26 15 -28 33 -3 23 1 27 37 33 23 4 44 12 48
17 4 8 -2 9 -18 4 -58 -16 -75 -17 -94 -3 -19 15 -19 15 5 36 14 11 21 20 16
21 -5 0 -17 -7 -27 -16 -14 -12 -22 -13 -38 -4 -30 16 -26 30 19 73 22 20 40
45 40 55 0 13 -4 11 -18 -9 -9 -15 -31 -41 -49 -59 -27 -28 -34 -30 -53 -20
-15 8 -19 17 -15 28 18 42 16 55 -3 25 -16 -23 -26 -30 -41 -26 -25 6 -25 2
-4 49 18 44 33 124 23 124 -4 0 -10 -17 -13 -37 -3 -21 -12 -55 -21 -75 -13
-29 -22 -38 -41 -38 -23 0 -25 4 -27 48 -1 47 -1 47 -5 7 -8 -82 -32 -64 -53
40 -14 68 -37 125 -52 125 -7 0 -7 -5 0 -13 6 -7 21 -55 34 -108 l24 -95 -27
1 c-15 0 -26 2 -24 5 2 3 -4 21 -12 40 -8 19 -17 30 -20 23 -2 -7 0 -21 6 -32
31 -57 1 -53 -65 9 -29 28 -58 50 -65 50 -6 0 13 -23 42 -51 51 -47 53 -51 35
-64 -14 -10 -24 -11 -38 -4 -19 10 -38 5 -38 -11 0 -5 8 -7 18 -3 11 4 14 3 7
-4 -22 -23 -205 -76 -205 -60 0 6 53 101 60 107 3 3 17 27 30 54 51 101 170
203 265 226 52 14 179 11 239 -5z m-2637 -47 c-3 -7 -5 -2 -5 12 0 14 2 19 5
13 2 -7 2 -19 0 -25z m148 12 c-3 -5 -12 -10 -18 -10 -7 0 -6 4 3 10 19 12 23
12 15 0z m725 -82 c43 -48 161 -148 175 -148 3 0 27 -12 53 -27 25 -16 68 -35
95 -43 48 -15 49 -16 32 -33 -10 -10 -24 -16 -32 -12 -11 4 -13 1 -9 -11 9
-24 -12 -44 -46 -44 -36 0 -84 20 -145 60 l-48 32 45 -41 c25 -22 52 -41 60
-42 42 -3 -45 -17 -115 -18 -76 -1 -83 1 -118 30 -21 17 -40 29 -43 26 -3 -2
9 -16 26 -31 l32 -26 -75 0 c-78 0 -89 5 -102 50 -7 24 -6 23 28 -9 19 -18 41
-31 49 -28 9 4 8 6 -4 6 -9 1 -30 18 -45 39 -15 20 -32 40 -37 43 -4 4 -9 20
-10 36 -2 16 -6 35 -11 42 -4 7 -3 17 3 23 6 6 16 0 27 -20 18 -29 72 -69 81
-59 3 3 -4 8 -15 12 -12 3 -35 27 -52 51 l-31 46 23 24 23 25 17 -34 c10 -18
29 -41 42 -52 15 -11 23 -24 19 -33 -4 -12 -1 -14 13 -9 9 4 25 2 34 -4 9 -6
0 3 -19 21 -19 17 -34 36 -32 41 1 6 -2 8 -7 5 -5 -4 -21 13 -35 36 -21 36
-23 45 -12 56 11 11 22 4 66 -42 29 -31 58 -56 64 -56 5 0 -10 21 -35 48 -69
72 -74 79 -59 97 19 23 26 19 53 -28 35 -60 83 -105 139 -132 26 -12 54 -28
63 -35 8 -7 18 -10 21 -8 3 3 -23 23 -58 43 -73 44 -129 99 -159 156 -25 49
-18 89 9 50 10 -13 37 -46 62 -73z m467 77 c0 -8 -4 -12 -9 -9 -4 3 -8 9 -8
15 0 5 4 9 8 9 5 0 9 -7 9 -15z m-1171 -19 c-30 -25 -25 -37 18 -43 25 -4 33
-12 21 -21 -19 -13 -10 -43 23 -77 17 -19 32 -39 32 -45 0 -6 7 -18 15 -26 11
-12 12 -20 5 -35 -10 -18 -9 -20 6 -18 9 1 44 -43 44 -57 0 -7 8 -15 18 -18 9
-3 -8 -4 -38 -2 -30 2 -56 9 -58 15 -2 7 -15 16 -27 21 -17 7 -22 14 -18 29 3
13 1 21 -7 21 -7 0 -10 6 -7 14 3 8 3 17 -1 21 -4 4 -7 12 -7 18 -1 7 -5 11
-10 10 -6 -1 -11 14 -12 34 -1 19 -7 41 -13 48 -6 8 -14 29 -17 47 -3 18 -6
37 -6 42 -1 4 12 17 28 26 41 25 45 24 11 -4z m1265 7 c32 -6 31 -5 23 -27 -5
-12 -10 -14 -19 -6 -10 8 -15 8 -21 -1 -4 -7 -3 -9 4 -5 12 7 17 1 26 -36 5
-23 3 -26 -17 -21 -31 8 -57 32 -51 48 3 8 -4 16 -17 20 -15 5 -18 9 -9 15 7
4 9 13 5 20 -6 10 -1 11 20 6 15 -4 40 -10 56 -13z m129 -19 c41 -8 98 -14
125 -12 44 3 50 0 53 -17 4 -37 -10 -42 -145 -48 -123 -5 -133 -4 -133 12 0
15 19 81 23 81 1 0 36 -7 77 -16z m226 -6 c4 -6 3 -8 -4 -4 -7 4 -9 -2 -6 -18
3 -18 -2 -28 -17 -36 -19 -11 -20 -10 -9 10 6 12 9 28 6 35 -9 23 17 35 30 13z
m37 -38 c15 0 -14 -20 -29 -20 -12 0 -11 25 2 55 8 18 9 18 12 -7 2 -16 9 -28
15 -28z m-1733 0 c0 -5 -2 -10 -4 -10 -3 0 -8 5 -11 10 -3 6 -1 10 4 10 6 0
11 -4 11 -10z m1978 -83 l22 -58 -35 -70 c-20 -38 -40 -69 -46 -69 -6 0 -1 12
10 26 38 49 18 113 -41 133 -48 17 -67 13 -99 -18 -37 -38 -39 -87 -5 -124
l24 -26 -31 -5 c-18 -3 -60 -7 -95 -10 l-63 -5 23 37 c12 20 32 51 43 68 11
18 27 45 36 61 11 21 44 43 120 80 57 28 107 49 110 45 3 -4 15 -33 27 -65z
m-674 -43 c19 -7 21 -49 4 -61 -7 -4 -21 -6 -31 -5 -42 7 -62 -45 -30 -80 20
-22 53 -24 53 -3 0 15 35 21 43 8 3 -5 1 -18 -4 -30 -8 -21 -15 -23 -83 -23
-68 0 -74 2 -80 23 -11 40 -6 57 17 66 21 8 48 49 61 94 6 18 23 21 50 11z
m156 -1 c0 -5 -7 -28 -15 -52 -19 -53 -12 -83 18 -79 14 2 23 11 25 26 2 14 9
22 18 20 8 -2 15 -6 15 -10 -1 -5 -1 -26 -1 -48 l0 -40 -68 0 -69 0 6 38 c4
20 4 61 1 89 -4 33 -2 54 4 57 18 8 66 6 66 -1z m171 -17 c-5 -11 -3 -40 2
-65 9 -41 7 -47 -13 -63 -29 -23 -42 -23 -58 2 -16 27 -6 120 16 137 8 7 25
12 37 11 18 -2 21 -6 16 -22z m229 -22 c0 -41 -19 -114 -30 -114 -13 0 -38 35
-44 60 -8 33 26 90 54 90 16 0 20 -7 20 -36z m60 6 c11 -11 20 -29 20 -39 0
-27 -48 -81 -70 -81 -18 0 -18 2 -5 41 8 23 15 54 15 70 0 34 12 37 40 9z
m569 -55 c127 -59 156 -97 181 -243 l11 -63 -48 -67 c-58 -82 -224 -289 -285
-357 l-45 -50 -6 270 c-3 149 -10 301 -16 340 -11 63 -10 71 6 83 44 31 75 67
80 94 5 27 9 29 36 24 17 -4 56 -18 86 -31z m-1020 -29 c-13 -15 -19 -3 -12
24 6 22 7 22 14 4 3 -10 3 -23 -2 -28z m-1184 15 c3 -5 2 -12 -3 -15 -5 -3 -9
1 -9 9 0 17 3 19 12 6z m-198 -8 c-4 -3 -1 -13 6 -22 11 -14 10 -14 -5 -2 -16
12 -16 31 -1 31 4 0 3 -3 0 -7z m2232 -19 c-18 -21 -63 -45 -136 -70 l-63 -22
0 24 c0 13 5 24 11 24 5 0 26 11 46 24 29 20 39 22 54 13 14 -9 25 -7 51 5 42
21 54 22 37 2z m-2324 -80 c26 -1 44 4 53 15 12 15 13 14 8 -1 -4 -14 0 -18
19 -18 20 0 25 -5 25 -25 0 -14 -1 -25 -2 -25 -2 0 -25 7 -52 15 -57 17 -74
19 -60 6 11 -10 116 -46 127 -43 4 1 7 -3 7 -9 0 -6 7 -8 16 -5 9 4 23 1 30
-5 7 -6 19 -9 26 -6 7 2 22 -3 32 -12 18 -15 19 -15 13 2 -8 21 -3 22 17 1 10
-10 16 -11 16 -4 0 9 11 10 38 5 20 -4 55 -9 77 -10 22 -2 41 -3 43 -4 1 -1 4
0 5 2 2 1 12 -5 22 -13 11 -9 16 -10 11 -2 -4 6 -3 12 2 12 14 0 22 -12 15
-23 -11 -19 -14 -69 -3 -62 6 3 10 15 10 25 0 10 5 22 10 25 20 12 1 -74 -29
-133 -31 -61 -55 -87 -111 -121 -81 -48 -202 -9 -316 102 l-66 64 3 99 c1 55
0 106 -2 114 -2 8 -20 24 -39 35 -36 21 -47 43 -35 73 4 12 11 5 28 -28 20
-40 25 -44 62 -46z m155 70 c0 -8 -19 -13 -24 -6 -3 5 1 9 9 9 8 0 15 -2 15
-3z m1945 -42 c11 -24 11 -33 1 -41 -17 -14 -237 -59 -308 -64 l-58 -3 0 32
c0 18 -4 36 -10 39 -5 3 -10 12 -10 18 0 8 3 8 9 -2 6 -9 10 -10 16 -2 3 7 15
9 25 6 10 -3 21 -1 25 5 4 6 13 7 23 2 15 -7 38 -8 45 -2 2 2 30 5 129 11 26
1 45 6 42 11 -3 4 4 8 16 8 12 0 19 4 16 9 -4 5 1 8 10 7 9 -1 22 -17 29 -34z
m-1630 -45 c13 -3 20 -13 22 -32 1 -15 7 -33 13 -39 27 -27 -2 -30 -110 -11
-8 1 -55 8 -105 15 -152 20 -170 25 -173 42 -2 9 6 18 18 21 11 3 20 0 20 -5
0 -7 5 -7 13 1 10 7 17 7 24 0 8 -8 13 -7 18 2 6 8 4 10 -5 4 -8 -5 -11 -4 -7
1 5 9 229 10 272 1z m648 -5 c39 -1 67 3 67 9 0 6 5 7 12 3 16 -10 58 -11 64
-2 3 5 13 4 23 -2 12 -6 22 -5 28 1 7 7 14 0 22 -22 23 -67 20 -70 -71 -69
-46 0 -145 -2 -220 -5 l-138 -5 0 31 c0 18 5 29 13 28 17 -3 48 12 42 21 -2 4
6 7 18 7 50 1 58 3 51 16 -6 9 -4 9 7 1 8 -6 44 -12 82 -12z m598 -55 c-15
-15 -99 -15 -105 0 -3 8 5 15 22 18 15 3 38 12 52 19 22 11 26 10 33 -8 4 -11
3 -24 -2 -29z m-838 0 c-3 -4 1 -14 7 -22 11 -13 -3 -15 -99 -15 -67 0 -111 4
-111 10 0 6 21 10 48 10 26 0 54 6 63 13 17 13 100 17 92 4z m1351 -8 c14 -11
30 -18 35 -15 5 3 12 -43 16 -105 7 -99 5 -112 -11 -131 -41 -44 -148 -79
-246 -80 -56 -1 -104 17 -129 48 -13 16 -12 17 6 10 24 -9 13 3 -17 18 -14 7
-23 21 -22 34 0 11 -3 19 -7 17 -7 -5 -29 48 -29 71 0 8 6 11 15 8 8 -4 15
-15 15 -25 0 -11 9 -29 20 -41 21 -23 27 -10 10 23 -8 14 -7 19 1 19 6 0 9 7
6 15 -4 8 -1 17 5 21 7 5 8 2 4 -7 -4 -8 -1 -6 7 4 20 24 25 22 66 -22 29 -31
46 -40 86 -45 29 -5 60 -17 73 -29 12 -11 22 -15 22 -9 0 6 15 28 32 48 61 69
70 152 19 179 -14 8 -21 14 -15 15 6 0 23 -9 38 -21z m-1644 -19 c0 -5 -11
-10 -25 -10 -14 0 -25 5 -25 10 0 6 11 10 25 10 14 0 25 -4 25 -10z m77 -3 c3
-4 -8 -7 -25 -7 -17 0 -33 3 -35 8 -6 9 50 8 60 -1z m1119 -4 c0 -10 4 -18 9
-18 6 0 9 8 9 18 -1 9 3 17 9 17 6 0 8 -29 4 -80 -8 -128 -56 -191 -192 -257
-54 -25 -82 -33 -125 -33 -142 2 -246 90 -270 230 -6 36 -13 73 -16 83 -5 16
0 18 43 15 26 -1 54 1 62 6 11 7 12 6 6 -5 -7 -11 -6 -12 6 -2 10 8 43 10 102
7 48 -2 96 0 106 5 33 18 31 -1 -2 -24 -28 -20 -34 -20 -49 -7 -24 20 -82 8
-96 -21 -26 -53 -25 -66 11 -102 18 -18 47 -37 63 -40 24 -5 56 -17 85 -33 4
-1 9 8 13 21 3 14 17 32 32 42 14 9 32 32 40 51 16 39 9 61 -31 92 -14 11 -25
23 -25 28 0 4 3 4 7 1 3 -4 13 -1 21 6 13 10 14 9 7 -3 -8 -13 -6 -13 8 -2 9
8 20 11 25 8 4 -2 30 -1 58 3 76 13 82 13 80 -6z m444 -24 c0 -10 -5 -21 -11
-25 -8 -4 -9 1 -4 15 4 13 1 29 -7 39 -12 15 -11 16 5 3 9 -7 17 -22 17 -32z
m-250 -13 c0 -2 -8 -10 -17 -17 -16 -13 -17 -12 -4 4 13 16 21 21 21 13z
m-1100 -30 c0 -2 -7 -7 -16 -10 -8 -3 -12 -2 -9 4 6 10 25 14 25 6z m-300 -55
c0 -13 29 -22 43 -14 7 4 7 0 -1 -9 -11 -14 -11 -16 0 -13 47 11 58 19 58 41
0 13 9 28 19 33 18 10 19 8 14 -30 -7 -50 16 -78 90 -109 29 -13 56 -30 61
-39 9 -14 11 -12 16 9 4 17 20 32 52 47 26 12 51 31 57 41 10 20 5 58 -11 79
-12 14 19 11 51 -6 27 -15 31 -14 31 7 1 15 1 16 10 1 7 -11 21 -16 44 -14 31
2 34 0 26 -16 -6 -10 -10 -26 -10 -36 1 -10 11 1 25 27 30 55 34 25 5 -37 -32
-71 -167 -200 -187 -179 -3 3 -13 1 -22 -3 -30 -17 -92 -21 -139 -10 -26 6
-58 13 -72 15 -44 8 -105 43 -139 78 -38 39 -71 123 -63 162 5 25 5 25 23 5
11 -11 19 -24 19 -30z m385 19 c3 -6 -1 -7 -9 -4 -18 7 -21 14 -7 14 6 0 13
-4 16 -10z m1749 -67 c9 -26 16 -69 16 -95 0 -46 -1 -49 -22 -43 -11 4 -42 20
-69 35 -26 16 -51 25 -55 22 -4 -4 17 25 46 65 30 40 57 70 61 67 4 -2 14 -25
23 -51z m-637 31 c-3 -3 -12 -4 -19 -1 -8 3 -5 6 6 6 11 1 17 -2 13 -5z m78
-22 c-7 -8 -45 10 -40 19 4 5 14 3 25 -3 11 -7 17 -14 15 -16z m-1194 -5 c-10
-9 -11 -8 -5 6 3 10 9 15 12 12 3 -3 0 -11 -7 -18z m-950 -37 c6 0 7 -5 3 -11
-4 -7 -1 -10 7 -7 8 3 32 -9 54 -26 53 -41 60 -48 68 -70 5 -13 14 -17 33 -13
16 3 28 -1 31 -9 3 -8 12 -14 20 -14 8 0 11 5 8 13 -4 6 1 3 9 -7 10 -13 16
-15 16 -7 0 11 3 11 15 1 10 -8 30 -10 60 -5 36 5 48 12 55 31 5 13 13 24 17
24 5 0 26 17 48 36 22 20 34 33 27 29 -11 -6 -12 -3 -3 13 6 12 16 24 21 27 6
4 8 10 5 15 -3 5 -1 11 4 14 5 3 9 -63 9 -157 -1 -89 3 -205 8 -257 9 -111 7
-229 -7 -395 -11 -127 -3 -478 12 -506 4 -9 6 -96 4 -195 -2 -98 -3 -199 -4
-222 0 -28 -4 -41 -10 -37 -6 3 -11 1 -11 -4 0 -6 5 -11 10 -11 6 0 10 -14 10
-31 0 -19 -4 -28 -11 -24 -6 4 -8 13 -5 20 5 14 -18 14 -31 0 -4 -4 -2 -5 5
-1 13 8 14 6 16 -42 2 -25 -1 -31 -13 -27 -10 4 -9 -1 5 -16 19 -22 19 -22 -1
-12 -30 15 -84 26 -65 13 13 -9 13 -10 0 -10 -9 0 -2 -9 15 -20 23 -15 32 -17
45 -8 10 8 10 6 -2 -7 -16 -17 -19 -17 -35 -3 -10 9 -22 17 -28 17 -5 0 -12 5
-15 13 -9 22 -28 19 -22 -4 4 -16 1 -20 -9 -16 -8 3 -39 11 -69 18 -30 8 -61
18 -69 24 -7 6 -20 11 -29 12 -43 7 -62 15 -56 26 4 7 3 8 -4 4 -6 -4 -30 3
-52 16 l-40 23 -1 110 c-1 61 -3 121 -4 135 -3 35 -16 277 -21 380 -2 47 -6
117 -8 155 -21 287 -35 859 -22 882 6 11 5 14 -3 9 -8 -5 -11 17 -10 76 1 46
4 73 6 61 2 -13 9 -23 14 -23z m1820 -51 c12 -19 11 -59 -1 -59 -14 0 -12 -20
4 -52 8 -15 11 -29 8 -33 -12 -11 -12 -48 -1 -61 6 -8 8 -14 4 -14 -4 0 -1 -8
6 -17 10 -11 10 -14 2 -9 -7 4 -13 2 -13 -3 0 -6 5 -11 10 -11 6 0 10 -7 10
-15 0 -8 -6 -12 -13 -9 -8 3 -14 -2 -14 -10 0 -8 6 -17 14 -20 7 -3 13 -13 13
-21 0 -9 -3 -14 -7 -12 -13 8 -8 -46 6 -71 7 -13 10 -26 7 -30 -3 -3 -6 0 -6
6 0 7 -4 12 -8 12 -5 0 -9 -13 -9 -30 0 -20 4 -27 11 -21 12 10 11 18 29 -227
8 -98 9 -169 4 -179 -7 -11 -6 -14 3 -8 9 6 11 -2 5 -35 -5 -30 -4 -41 4 -36
8 5 11 -11 10 -51 -1 -32 -4 -48 -6 -35 -2 12 -8 22 -13 22 -10 0 -3 -27 11
-45 4 -6 7 -42 7 -80 0 -39 3 -86 7 -106 7 -38 -8 -84 -25 -74 -5 3 -11 1 -15
-5 -3 -5 -1 -10 5 -10 12 0 3 -67 -12 -87 -6 -7 -4 -13 4 -16 9 -3 6 -7 -7
-11 -86 -30 -104 -59 -52 -84 50 -24 30 -115 -27 -125 -17 -3 -39 -8 -48 -12
-21 -8 -34 16 -23 42 6 15 8 16 14 3 4 -11 16 -14 42 -10 l36 5 -13 45 c-23
77 -81 87 -120 22 -10 -18 -23 -28 -31 -25 -11 4 -13 -11 -8 -85 l5 -91 -31
11 c-35 12 -56 40 -65 88 -6 27 -4 32 7 25 12 -8 12 -6 0 9 -8 9 -10 16 -5 15
23 -4 26 2 8 17 -10 8 -14 13 -9 11 6 -3 19 7 30 22 l20 26 -27 -17 c-25 -16
-26 -16 -21 2 7 26 33 48 33 29 0 -11 2 -11 9 1 6 8 7 18 5 22 -3 5 3 11 13
15 29 11 32 24 15 60 -31 65 -108 33 -148 -62 -29 -70 -51 -159 -49 -198 6
-82 98 -165 194 -175 35 -3 52 0 63 12 9 9 28 16 42 16 18 0 26 5 26 17 0 13
3 14 12 5 28 -28 142 3 132 36 -3 11 1 9 12 -5 13 -18 20 -20 35 -12 16 8 19
6 17 -13 -2 -21 -38 -68 -38 -50 0 5 -7 9 -15 9 -8 0 -15 -6 -15 -14 0 -7 -3
-12 -7 -12 -5 1 -10 0 -13 -1 -3 -2 -23 -4 -45 -6 -22 -2 -50 -6 -62 -10 -14
-4 -23 -2 -23 5 0 5 7 8 15 5 8 -4 15 -1 15 6 0 6 4 9 9 5 5 -3 13 0 17 6 5 9
-1 10 -22 4 -16 -4 -34 -8 -41 -8 -6 0 -9 -6 -6 -12 7 -19 -28 -27 -46 -12
-21 19 -51 18 -44 -1 5 -11 7 -11 14 -1 4 8 11 10 15 6 10 -10 1 -17 -32 -23
-16 -2 -34 -6 -41 -9 -6 -2 -14 3 -17 11 -7 17 -26 19 -26 2 0 -8 -17 -14 -45
-16 -25 -1 -45 2 -45 7 0 5 -25 11 -55 13 -41 2 -54 0 -50 -9 2 -7 0 -13 -5
-13 -5 0 -8 25 -7 55 1 30 -2 56 -6 58 -13 4 -18 149 -6 164 6 6 7 18 3 24 -5
9 -2 10 9 6 11 -4 14 -2 10 8 -3 8 -8 13 -12 10 -4 -2 -8 1 -8 8 0 7 -3 23 -7
37 -8 24 -7 24 7 5 8 -11 13 -24 10 -29 -4 -5 -1 -6 5 -2 7 4 6 14 -3 33 -8
15 -11 31 -8 37 4 6 -1 5 -10 -3 -15 -12 -17 -11 -17 12 0 14 -3 34 -6 44 -5
15 -4 15 5 3 9 -12 11 -11 11 8 0 12 7 25 15 28 8 4 15 13 15 22 0 8 3 12 7 9
8 -9 33 12 33 27 0 6 -7 3 -14 -7 -10 -12 -16 -15 -21 -7 -9 15 -1 22 28 24
14 0 23 4 20 9 -2 4 1 7 6 7 6 0 11 6 11 14 0 7 8 20 18 27 16 13 16 13 2 -6
-14 -19 -14 -19 2 -6 10 7 16 17 13 21 -3 4 4 19 16 31 16 18 19 20 15 6 -3
-11 -2 -16 4 -12 6 3 7 17 4 31 -5 20 -3 24 18 24 27 0 68 26 68 43 0 7 16 22
35 35 23 14 38 33 41 51 5 21 13 30 34 34 29 6 58 56 45 77 -5 9 0 10 16 6 13
-3 19 -3 12 0 -8 4 -5 12 9 26 13 13 18 28 15 45 -3 17 1 27 12 31 28 10 41
36 36 69 -4 19 0 44 8 60 9 16 11 36 7 48 -4 12 -1 29 8 43 12 18 12 28 4 48
-7 13 -18 27 -26 30 -8 3 -12 12 -9 20 7 19 -25 54 -49 54 -13 0 -18 7 -18 25
0 17 -9 29 -30 40 -17 9 -34 13 -39 10 -5 -2 -16 6 -25 20 -12 18 -25 25 -50
25 -18 0 -39 7 -46 15 -16 19 -43 19 -80 0 -18 -9 -31 -11 -35 -5 -11 18 -56
10 -81 -15 -14 -14 -37 -25 -51 -25 -14 0 -32 -8 -39 -17 -7 -10 -14 -13 -14
-6 0 6 4 15 10 18 6 4 5 16 -4 33 -18 36 -32 207 -16 197 9 -6 9 -2 1 14 -7
11 -8 21 -4 21 4 0 2 5 -5 12 -18 18 -15 75 4 82 12 4 15 2 10 -9 -3 -8 0 -14
7 -12 7 1 11 -4 9 -11 -1 -8 2 -11 7 -8 5 4 12 2 16 -4 4 -6 11 -8 16 -5 5 4
9 2 9 -3 0 -6 11 -13 25 -16 14 -4 25 -11 25 -17 0 -6 9 -8 21 -4 12 4 19 3
16 -2 -3 -4 32 -4 78 1 47 5 82 12 80 16 -3 4 5 7 18 6 12 0 21 4 20 10 -1 5
8 16 20 24 21 12 21 12 7 -5 -14 -17 -14 -17 7 -7 12 7 26 20 32 30 5 9 12 14
16 11 5 -5 28 13 90 69 14 13 35 9 46 -9z m817 -39 c34 -16 66 -30 72 -30 8 0
9 -11 5 -32 -10 -48 -20 -53 -53 -30 -16 12 -32 19 -36 15 -3 -4 12 -17 34
-30 36 -22 39 -26 29 -46 -7 -12 -13 -23 -14 -25 -4 -4 -69 38 -105 67 -32 26
-48 27 -25 1 15 -16 43 -36 123 -86 6 -3 -33 -64 -41 -64 -5 0 -22 9 -38 21
-16 11 -29 16 -29 10 0 -6 12 -18 28 -28 15 -9 29 -18 31 -20 2 -1 -4 -14 -13
-28 l-17 -26 -27 20 c-15 11 -42 34 -61 51 -19 17 -37 28 -40 24 -6 -6 58 -68
97 -94 l22 -15 -23 -28 -22 -29 -28 22 c-39 31 -45 19 -7 -13 l30 -26 -23 -27
-23 -26 -62 51 c-33 28 -64 51 -67 51 -18 0 2 -24 53 -62 31 -23 59 -47 60
-53 3 -11 -39 -84 -49 -85 -4 0 -12 7 -19 15 -7 8 -17 15 -23 15 -6 0 0 -11
12 -24 22 -23 22 -25 7 -55 -9 -17 -21 -31 -25 -31 -5 0 -30 16 -55 35 -26 19
-49 35 -53 35 -15 0 51 -59 78 -70 16 -7 29 -14 29 -15 0 -2 -9 -24 -20 -50
-18 -41 -22 -45 -40 -35 -12 6 -26 10 -32 8 -6 -2 3 -10 21 -18 21 -8 30 -18
27 -27 -4 -8 -6 -26 -6 -40 l0 -25 -55 31 c-30 17 -55 27 -55 22 0 -6 21 -23
48 -38 57 -33 60 -36 54 -73 -4 -25 -7 -28 -22 -20 -22 12 -30 13 -30 2 0 -4
13 -12 28 -18 24 -9 30 -18 35 -55 3 -24 5 -45 3 -46 -1 -2 -24 28 -51 65 -93
129 -133 257 -120 382 10 88 38 160 98 250 52 76 306 380 318 380 4 0 34 -13
67 -30z m-2268 -40 c0 -5 -2 -10 -4 -10 -3 0 -8 5 -11 10 -3 6 -1 10 4 10 6 0
11 -4 11 -10z m-35 -10 c-3 -5 -21 -9 -38 -9 l-32 2 35 7 c19 4 36 8 38 9 2 0
0 -3 -3 -9z m1073 -20 c3 0 3 -2 0 -5 -5 -6 -78 22 -78 30 0 3 16 -2 36 -10
20 -8 39 -15 42 -15z m-416 -237 c17 -15 19 -15 36 0 21 19 38 22 47 7 4 -6 1
-9 -7 -8 -8 2 -13 -6 -12 -18 0 -19 -7 -22 -58 -28 -127 -13 -240 -83 -289
-178 -20 -39 -34 -47 -42 -25 -8 22 -30 -9 -22 -32 5 -16 10 -19 23 -12 15 8
17 0 20 -74 3 -81 2 -83 -19 -78 -12 4 -25 0 -30 -8 -13 -20 -12 7 1 31 8 15
6 20 -10 25 -27 9 -26 50 2 69 17 12 20 18 10 28 -19 19 -14 42 13 68 22 21
23 25 10 40 -13 14 -13 19 1 38 8 12 24 22 35 22 15 0 18 5 14 23 -8 32 15 49
65 49 36 -1 40 2 40 25 0 22 3 25 28 21 15 -3 35 -9 45 -13 11 -5 17 -3 17 7
0 37 50 50 82 21z m564 -38 c3 -14 10 -25 16 -25 5 0 6 -4 3 -10 -11 -18 -32
-10 -31 13 1 17 -5 22 -24 22 -16 0 -25 -6 -25 -15 0 -8 -7 -18 -15 -22 -20
-9 -55 -10 -47 -1 11 10 -23 42 -39 36 -17 -6 -19 -39 -3 -49 11 -6 -6 -23
-23 -24 -19 0 -7 60 14 74 29 20 34 20 58 -4 19 -19 20 -19 44 5 33 33 64 33
72 0z m-422 0 c-10 -7 -14 -17 -9 -24 6 -10 3 -11 -13 -2 -27 14 -19 36 14 37
22 2 23 1 8 -11z m56 -36 c0 -4 10 -9 23 -11 16 -2 23 -11 25 -30 4 -31 16
-36 29 -13 7 12 10 11 21 -5 10 -16 8 -22 -18 -40 l-29 -21 -16 31 c-9 17 -11
30 -5 30 5 0 10 10 10 21 0 18 -4 21 -29 16 -19 -4 -33 -1 -41 8 -10 12 -10
15 0 15 8 0 10 8 7 23 -6 21 -6 21 8 3 8 -11 15 -23 15 -27z m-35 21 c3 -5 1
-10 -4 -10 -6 0 -11 5 -11 10 0 6 2 10 4 10 3 0 8 -4 11 -10z m370 0 c3 -5 1
-10 -4 -10 -6 0 -11 5 -11 10 0 6 2 10 4 10 3 0 8 -4 11 -10z m113 -2 c7 -7
12 -21 12 -31 0 -14 5 -17 16 -13 13 5 14 4 6 -7 -7 -8 -9 -17 -5 -20 12 -13
-12 -6 -31 8 -11 8 -14 15 -8 15 7 0 12 9 12 20 0 24 -15 27 -24 4 -3 -8 -11
-12 -17 -8 -8 4 -6 10 7 17 17 10 17 11 -1 18 -19 7 -19 8 1 8 11 1 25 -4 32
-11z m-224 -19 c-3 -5 -10 -7 -15 -3 -5 3 -7 10 -3 15 3 5 10 7 15 3 5 -3 7
-10 3 -15z m-75 -31 c14 -23 14 -23 -7 -4 -12 10 -28 16 -37 12 -9 -3 -13 -2
-10 4 11 17 40 11 54 -12z m-331 -21 c9 -2 24 3 33 10 14 12 19 12 33 -3 13
-13 14 -19 5 -31 -10 -11 -10 -14 2 -11 8 2 13 -2 12 -9 -2 -7 4 -10 12 -7 8
4 12 11 9 18 -3 6 0 4 8 -5 7 -9 19 -14 26 -12 6 3 12 0 12 -7 0 -6 4 -9 9 -5
11 6 33 -29 24 -38 -11 -12 18 -36 35 -30 15 6 16 5 2 -13 -14 -18 -14 -18 5
-4 11 8 28 24 38 35 15 16 18 16 14 3 -4 -11 0 -15 11 -13 10 1 17 11 16 23 0
12 4 18 13 15 7 -3 10 -10 6 -17 -3 -6 4 -1 16 12 12 12 27 22 33 22 7 0 6 5
-2 15 -11 13 -10 14 5 9 13 -5 16 -4 11 4 -5 8 2 11 23 8 17 -2 31 1 31 5 0 5
9 9 21 9 11 0 17 -4 14 -10 -3 -5 -2 -10 4 -10 5 0 13 5 16 10 9 15 25 12 25
-4 0 -23 17 -28 34 -11 14 14 17 14 35 -4 11 -11 22 -17 25 -13 3 3 6 1 6 -5
0 -6 13 -16 29 -23 16 -6 32 -18 35 -26 8 -21 -22 -17 -41 6 -21 24 -56 26
-77 4 -22 -21 -20 -27 15 -58 34 -30 33 -44 -1 -26 -20 11 -21 10 -10 -10 7
-12 18 -19 26 -16 8 3 14 0 14 -7 0 -8 3 -9 8 -1 4 6 14 11 22 11 8 0 21 2 28
4 8 2 18 -6 23 -19 5 -13 5 -21 1 -18 -4 2 -7 -9 -8 -25 -1 -35 2 -36 26 -6
28 33 33 16 12 -39 -19 -47 -45 -74 -35 -36 2 11 -1 23 -8 27 -8 5 -10 4 -5
-3 4 -7 3 -12 -1 -12 -11 0 -43 -53 -43 -70 0 -8 9 -6 27 6 l28 17 -19 -29
c-54 -83 -148 -199 -181 -224 -18 -14 -19 -13 -8 1 7 9 10 19 6 22 -3 4 -2 7
4 7 16 0 24 28 11 36 -6 4 -8 3 -5 -3 4 -6 -12 -23 -36 -38 -23 -16 -36 -30
-29 -33 16 -5 5 -22 -14 -22 -8 0 -14 9 -14 20 0 11 -12 27 -26 37 l-26 16 25
13 c26 14 54 89 48 133 -1 13 1 21 6 18 6 -4 10 7 10 23 0 17 -5 27 -10 23 -6
-4 -8 2 -5 15 4 13 2 20 -6 19 -6 -1 -10 6 -9 16 0 10 -2 16 -5 13 -3 -3 -12
3 -20 15 -8 11 -11 23 -8 26 3 4 6 2 6 -4 0 -6 7 -13 15 -17 13 -4 14 -2 5 14
-10 18 -22 25 -43 21 -5 -1 -6 3 -2 8 5 9 -9 15 -55 26 -3 1 -18 7 -34 14 -16
6 -35 10 -42 7 -7 -3 -18 2 -24 9 -7 8 -17 12 -24 8 -6 -4 -5 0 2 9 9 11 10
18 2 23 -13 8 -50 -3 -50 -16 0 -6 4 -7 10 -4 6 3 7 -1 4 -9 -3 -9 -13 -16
-20 -16 -8 0 -28 -10 -43 -21 -18 -13 -34 -18 -43 -14 -7 5 -10 5 -6 0 4 -4
-8 -26 -27 -48 -41 -48 -59 -106 -51 -160 6 -34 5 -38 -12 -33 -29 10 -48 -18
-34 -49 13 -28 59 -35 68 -10 5 12 9 11 24 -8 10 -12 17 -25 16 -29 -3 -15 49
-58 71 -58 23 0 23 -1 7 -25 -20 -30 -13 -51 20 -67 45 -20 74 25 41 62 -15
16 -13 17 29 7 38 -9 50 -7 85 11 l41 22 0 -25 c0 -18 7 -26 25 -31 14 -3 32
-4 40 0 21 8 19 -4 -6 -25 -22 -19 -45 -17 -33 3 4 7 2 8 -5 4 -6 -4 -8 -12
-5 -18 5 -7 1 -9 -9 -5 -11 4 -17 1 -17 -8 0 -17 -16 -20 -25 -5 -9 15 -41 12
-54 -4 -19 -23 -3 -66 24 -66 13 0 27 -5 31 -12 4 -7 3 -8 -4 -4 -7 4 -12 2
-12 -5 0 -9 -3 -9 -14 0 -8 6 -20 10 -27 9 -7 -2 -13 3 -14 10 0 8 -15 20 -33
28 -19 7 -30 9 -26 3 4 -7 -1 -9 -12 -7 -11 2 -18 10 -16 16 2 13 -39 58 -49
55 -4 -1 -6 4 -5 12 0 8 -3 13 -9 12 -5 -1 -9 -11 -8 -22 1 -16 1 -16 -3 -2
-3 9 -12 17 -20 17 -8 0 -13 6 -12 13 2 6 -4 12 -12 12 -9 0 -27 10 -40 23
-27 25 -29 25 -49 13 -9 -6 -10 -11 -2 -15 6 -4 14 -6 19 -4 4 2 25 -14 47
-36 l40 -39 -44 24 c-60 33 -135 104 -126 120 5 7 4 10 -3 5 -13 -8 -79 78
-116 152 -20 39 -28 74 -32 136 -4 54 -2 86 4 90 7 4 9 -2 7 -15 -4 -18 -2
-19 11 -8 9 8 14 25 12 46 -3 35 9 53 38 57 12 2 18 10 16 21 -2 11 1 15 10
10 7 -3 5 0 -4 8 -17 13 -16 16 11 40 42 37 91 61 91 45 0 -11 2 -10 8 0 5 7
22 15 38 18 16 3 31 8 34 11 3 2 6 -2 8 -10 2 -9 11 -18 20 -20z m732 -2 c0
-7 -5 -17 -10 -20 -8 -5 -8 -11 -1 -19 6 -7 8 -16 4 -19 -3 -4 -12 1 -19 11
-9 12 -9 20 -1 30 8 10 8 19 -2 33 -11 18 -10 19 9 9 11 -6 20 -17 20 -25z
m-420 11 c0 -3 -4 -8 -10 -11 -5 -3 -10 -1 -10 4 0 6 5 11 10 11 6 0 10 -2 10
-4z m385 -6 c3 -5 2 -10 -4 -10 -5 0 -13 5 -16 10 -3 6 -2 10 4 10 5 0 13 -4
16 -10z m-34 -37 c13 -16 12 -17 -3 -4 -10 7 -18 15 -18 17 0 8 8 3 21 -13z
m1367 -30 c75 -46 135 -102 169 -160 22 -38 23 -45 11 -70 -17 -35 -86 -65
-98 -42 -48 82 -103 149 -148 179 -57 37 -66 65 -36 108 20 30 30 28 102 -15z
m-1242 -18 c-5 -18 -1 -25 14 -30 34 -11 44 -41 20 -65 -18 -18 -19 -24 -8
-38 11 -13 11 -14 -2 -7 -8 5 -21 10 -29 10 -8 0 -19 22 -28 54 -7 30 -19 62
-26 70 -10 14 -10 14 4 3 22 -17 52 -4 46 19 -3 11 -1 16 5 13 5 -3 7 -17 4
-29z m-31 15 c3 -5 1 -10 -4 -10 -6 0 -11 5 -11 10 0 6 2 10 4 10 3 0 8 -4 11
-10z m-985 -24 c0 -2 -8 -10 -17 -17 -16 -13 -17 -12 -4 4 13 16 21 21 21 13z
m470 -16 c0 -5 -7 -7 -15 -4 -8 4 -15 8 -15 10 0 2 7 4 15 4 8 0 15 -4 15 -10z
m420 -27 c0 -14 -19 -38 -25 -32 -8 8 5 39 16 39 5 0 9 -3 9 -7z m-956 -38
c-4 -8 -8 -15 -10 -15 -2 0 -4 7 -4 15 0 8 4 15 10 15 5 0 7 -7 4 -15z m2338
-95 c37 -56 48 -80 43 -98 -27 -106 -126 -215 -265 -289 -105 -57 -148 -71
-232 -79 -128 -13 -235 53 -258 160 -6 27 -8 51 -5 54 3 3 17 0 31 -7 24 -11
26 -15 19 -56 -4 -29 -3 -45 4 -45 6 0 11 13 11 29 0 47 10 61 41 61 30 0 34
-9 29 -69 -1 -16 2 -21 10 -16 7 4 10 23 8 46 -3 38 -3 39 28 39 27 0 34 -5
43 -31 6 -18 11 -56 11 -86 0 -30 4 -52 9 -49 11 7 4 118 -9 152 -8 21 -6 25
23 32 35 10 47 1 47 -35 0 -12 5 -25 10 -28 12 -8 13 11 1 51 -8 28 -6 33 15
43 14 6 29 11 33 11 10 0 61 -112 61 -134 0 -9 5 -16 10 -16 16 0 12 20 -20
95 -17 38 -30 70 -30 70 0 1 13 11 29 23 l30 22 25 -43 c14 -23 26 -35 26 -27
0 8 -9 29 -19 46 l-19 32 33 32 c32 31 34 31 63 16 16 -8 41 -29 55 -46 14
-16 28 -26 31 -21 7 11 -79 91 -98 91 -12 0 -11 7 6 36 l21 35 23 -22 c13 -12
27 -20 30 -16 4 3 -5 16 -20 29 l-26 23 17 47 17 47 30 -17 c16 -9 51 -51 78
-92z m-1777 16 c46 -20 99 -61 121 -94 13 -19 17 -43 16 -85 -4 -97 -51 -165
-135 -193 -86 -28 -158 -9 -231 63 -47 46 -66 88 -66 147 0 58 29 107 87 146
40 25 56 30 110 30 35 0 79 -7 98 -14z m520 -11 c6 0 16 4 22 8 9 6 11 3 7 -7
-3 -9 -15 -16 -25 -16 -23 0 -25 -13 -4 -30 26 -22 19 -60 -14 -73 -26 -9 -29
-15 -24 -39 7 -33 -20 -70 -44 -61 -12 5 -14 0 -8 -26 9 -41 -8 -61 -49 -61
-30 0 -32 -2 -28 -29 4 -32 -22 -55 -56 -49 -12 2 -18 -5 -20 -22 -5 -34 -30
-60 -58 -60 -15 0 -25 -9 -32 -29 -7 -19 -19 -31 -33 -33 -14 -2 -25 -12 -29
-25 -4 -18 -8 -20 -22 -9 -15 11 -15 15 7 42 13 16 24 23 25 17 0 -22 40 -15
40 7 0 12 -7 20 -17 20 -10 0 14 31 65 83 45 45 100 107 121 137 22 30 50 68
62 83 30 39 89 158 90 182 0 15 2 17 7 5 4 -9 12 -15 17 -15z m-1125 -75 c0
-5 -2 -10 -4 -10 -3 0 -8 5 -11 10 -3 6 -1 10 4 10 6 0 11 -4 11 -10z m4 -27
c8 3 18 -5 25 -19 14 -32 14 -32 -6 -30 -12 1 -18 -6 -18 -19 0 -15 7 -20 27
-20 22 0 34 -10 58 -49 60 -93 124 -158 228 -228 57 -38 118 -82 135 -98 18
-17 51 -40 74 -52 26 -14 43 -31 46 -45 6 -30 -8 -29 -29 2 -11 16 -21 22 -28
17 -37 -29 -79 -13 -88 33 -3 16 -10 20 -38 18 l-35 -2 37 10 c35 10 36 12 20
30 -9 10 -22 19 -28 19 -7 0 -15 8 -17 18 -3 11 -5 8 -6 -8 -1 -22 -6 -26 -35
-28 -35 -3 -50 9 -58 45 -7 28 14 21 27 -9 12 -25 25 -31 44 -19 20 13 5 51
-20 46 -12 -3 -17 0 -13 7 4 7 2 8 -5 4 -6 -4 -25 3 -42 15 -24 16 -33 19 -42
10 -9 -10 -7 -17 12 -32 16 -13 18 -19 8 -19 -8 0 -20 7 -28 16 -10 13 -10 19
0 36 16 25 9 33 -18 18 -29 -15 -41 -5 -41 34 0 30 -2 33 -25 28 -30 -5 -38
10 -39 82 -1 46 -3 51 -23 50 -13 0 -23 5 -23 12 0 7 -10 14 -22 16 -21 3 -23
8 -21 49 2 39 -1 48 -17 52 -11 3 -20 11 -20 17 0 10 3 10 15 0 8 -7 21 -10
29 -7z m76 -163 c0 -5 -2 -10 -4 -10 -3 0 -8 5 -11 10 -3 6 -1 10 4 10 6 0 11
-4 11 -10z m-14 -27 c-7 -7 -26 7 -26 19 0 6 6 6 15 -2 9 -7 13 -15 11 -17z
m325 -50 c13 -16 12 -17 -3 -4 -17 13 -22 21 -14 21 2 0 10 -8 17 -17z m374
-94 c-4 -5 -12 -9 -18 -8 -9 0 -8 2 1 6 6 2 9 10 6 15 -4 7 -2 8 5 4 6 -4 9
-12 6 -17z m606 -96 c11 -15 11 -16 -1 -5 -19 17 -51 15 -80 -4 l-25 -16 24
21 c28 26 64 27 82 4z m-666 -43 c3 -5 -1 -10 -10 -10 -9 0 -13 5 -10 10 3 6
8 10 10 10 2 0 7 -4 10 -10z m682 -12 c-3 -8 -6 -5 -6 6 -1 11 2 17 5 13 3 -3
4 -12 1 -19z m70 -32 c-1 -31 -5 -54 -11 -53 -6 1 -10 -3 -11 -10 0 -6 -4 -15
-9 -20 -5 -4 -5 7 -1 27 4 19 10 36 14 38 4 1 5 18 3 37 -2 20 0 35 6 35 6 0
10 -24 9 -54z m-772 6 c-11 -1 -28 -17 -39 -35 -17 -29 -19 -30 -26 -12 -6 15
-1 27 18 47 21 23 28 25 46 15 21 -11 21 -12 1 -15z m685 18 c0 -5 -9 -10 -19
-10 -11 0 -23 5 -26 10 -4 6 5 10 19 10 14 0 26 -4 26 -10z m-112 -47 c-2 -10
3 -17 10 -15 8 1 12 -9 11 -30 -1 -22 -3 -26 -6 -13 -3 11 -10 26 -15 33 -13
15 -32 16 -22 0 4 -6 3 -8 -4 -5 -14 10 -3 47 15 47 8 0 13 -8 11 -17z m366
-12 c3 -4 -6 -6 -19 -3 -14 2 -25 0 -25 -5 0 -15 23 -33 42 -33 11 0 15 -5 11
-15 -5 -14 -8 -14 -28 -1 -21 14 -22 12 -35 -22 -8 -21 -14 -40 -15 -44 0 -3
-3 -9 -7 -13 -3 -4 -5 1 -4 12 2 10 -5 26 -15 36 -34 33 7 97 62 97 15 0 30
-4 33 -9z m-698 -72 c3 -6 -13 -31 -37 -55 -44 -45 -44 -45 -44 -117 0 -101
30 -142 115 -157 31 -5 35 -9 33 -34 -2 -33 -11 -45 -21 -29 -4 7 -26 19 -47
28 -61 24 -85 38 -85 47 0 4 -8 17 -17 28 -19 22 -26 98 -11 117 5 7 5 14 -2
18 -14 9 -13 21 6 39 8 9 12 16 8 16 -3 0 -1 7 6 15 7 8 9 15 6 15 -4 0 -1 10
6 23 7 12 11 25 10 30 -1 4 1 6 6 6 19 -3 33 2 27 11 -3 6 3 10 14 10 11 0 23
-5 27 -11z m307 -15 c4 -23 3 -24 -10 -11 -9 8 -12 20 -9 26 10 16 13 14 19
-15z m42 -4 c3 -6 -1 -7 -9 -4 -18 7 -21 14 -7 14 6 0 13 -4 16 -10z m55 -40
c0 -25 -4 -30 -25 -30 -14 0 -25 -6 -26 -12 -11 -124 0 -158 55 -172 37 -9 31
-39 -9 -46 -26 -5 -34 0 -55 30 -26 37 -29 76 -17 178 6 57 14 75 27 67 5 -3
11 -1 15 5 14 22 35 10 35 -20z m296 -22 l19 -21 -30 18 c-41 26 -40 25 -23
25 8 0 23 -10 34 -22z m-236 2 c0 -5 -6 -10 -14 -10 -8 0 -18 5 -21 10 -3 6 3
10 14 10 12 0 21 -4 21 -10z m120 -6 c0 -12 -8 -15 -32 -12 -31 3 -33 1 -32
-27 7 -149 6 -178 -7 -186 -21 -13 -59 -11 -59 4 0 26 30 169 40 187 22 42 90
67 90 34z m71 -24 c10 0 19 -5 19 -11 0 -5 5 -7 12 -3 8 5 9 2 4 -11 -5 -15
-4 -16 8 -6 11 9 16 9 22 0 4 -7 3 -9 -3 -6 -6 4 -13 0 -17 -8 -3 -8 -1 -17 4
-20 4 -3 11 1 13 7 3 7 6 -6 6 -29 1 -33 -3 -43 -15 -43 -8 0 -13 -4 -10 -9 3
-4 -7 -6 -22 -3 -17 3 -21 7 -12 10 8 3 19 11 23 19 5 7 12 11 16 9 4 -3 8 1
8 9 0 8 -3 13 -5 10 -3 -3 -10 5 -16 18 -7 12 -29 31 -50 42 -21 11 -38 23
-37 28 0 4 1 12 1 18 0 6 7 3 16 -5 8 -9 24 -16 35 -16z m-491 -14 c0 -6 -5
-4 -10 4 -8 12 -10 11 -10 -7 0 -13 5 -22 12 -20 6 1 14 -6 16 -15 5 -23 -25
-24 -49 -2 -17 15 -18 15 -24 -7 -8 -33 -1 -100 13 -126 7 -12 12 -33 12 -47
0 -20 -5 -26 -21 -26 -13 0 -19 5 -16 13 16 44 17 56 2 71 -9 9 -12 16 -6 16
21 0 11 29 -11 32 -13 2 -23 10 -24 18 0 9 1 10 3 2 8 -23 23 -1 17 25 -5 20
-4 24 6 18 10 -6 12 -3 8 13 -3 12 -3 21 1 20 12 -4 51 27 51 41 0 11 3 11 15
1 8 -7 15 -18 15 -24z m-465 -46 c-3 -5 -14 -10 -23 -10 -15 0 -15 2 -2 10 20
13 33 13 25 0z m553 -27 c-2 -10 -7 -21 -13 -25 -6 -5 -6 -11 2 -16 6 -4 16
-19 22 -34 8 -22 6 -30 -14 -52 -13 -14 -29 -27 -35 -27 -5 -1 -16 -2 -22 -3
-26 -4 -45 14 -57 54 -15 52 -3 70 49 70 30 0 39 5 48 25 13 29 24 33 20 8z
m353 -20 c13 -15 12 -16 -8 -11 -16 4 -23 2 -23 -8 0 -7 10 -23 23 -34 l22
-21 -25 9 c-19 7 -26 17 -28 46 -4 40 15 49 39 19z m-758 -13 c-4 -15 0 -20
13 -20 13 0 15 -3 7 -11 -20 -20 2 -52 77 -111 21 -16 18 -16 -18 3 -43 23
-88 80 -78 98 4 5 2 12 -4 16 -12 8 -13 45 -1 45 5 0 7 -9 4 -20z m-883 -30
c0 -5 -2 -10 -4 -10 -3 0 -8 5 -11 10 -3 6 -1 10 4 10 6 0 11 -4 11 -10z m270
-11 c0 -9 -31 -21 -38 -14 -3 3 0 5 7 5 7 0 10 4 7 8 -3 5 1 9 9 9 8 0 15 -4
15 -8z m1444 -1 c-3 -4 -9 -8 -15 -8 -5 0 -9 4 -9 8 0 5 7 9 15 9 8 0 12 -4 9
-9z m-996 -35 c-15 -15 -16 -15 -13 3 2 10 4 23 4 29 1 5 6 4 13 -3 10 -9 9
-16 -4 -29z m-384 2 c-15 -22 -31 -36 -21 -17 2 4 7 15 10 25 4 9 11 17 17 17
6 0 3 -11 -6 -25z m1450 14 c-3 -6 -1 -15 7 -20 11 -6 10 -12 -5 -27 -13 -15
-14 -21 -4 -25 7 -3 0 -4 -17 -3 -16 2 -24 1 -17 -1 16 -6 15 -31 -2 -49 -13
-12 -16 -11 -22 8 -5 13 -7 27 -6 31 1 5 -2 6 -8 2 -17 -11 -11 17 8 31 16 13
16 14 -3 9 -13 -4 -12 -1 5 7 14 7 33 21 42 31 20 19 33 23 22 6z m-2228 -35
c38 -20 71 -37 73 -39 2 -2 -6 -16 -18 -31 -13 -16 -21 -21 -21 -12 0 8 -6 15
-14 15 -11 0 -10 -5 2 -27 21 -37 11 -60 -25 -54 -52 9 -78 24 -92 56 -8 18
-16 27 -19 20 -4 -13 -32 -17 -32 -4 0 4 6 14 13 21 10 11 10 13 0 7 -7 -4
-13 -3 -13 3 0 12 59 81 70 81 4 0 38 -16 76 -36z m830 9 c-7 -7 -26 7 -26 19
0 6 6 6 15 -2 9 -7 13 -15 11 -17z m139 0 l18 -28 -21 19 c-12 11 -22 23 -22
28 0 14 7 9 25 -19z m575 6 c0 -5 -4 -9 -8 -9 -5 0 -9 7 -9 15 0 8 4 12 9 9 4
-3 8 -9 8 -15z m280 -10 c0 -14 -27 -10 -33 5 -4 10 0 12 14 9 10 -3 19 -9 19
-14z m-1325 -9 c8 -13 -5 -13 -25 0 -13 8 -13 10 2 10 9 0 20 -4 23 -10z m414
-20 c-6 -16 -16 -30 -22 -30 -7 0 -7 4 1 12 7 7 12 20 12 30 0 10 4 18 9 18 6
0 6 -12 0 -30z m-512 -2 c-3 -8 -6 -5 -6 6 -1 11 2 17 5 13 3 -3 4 -12 1 -19z
m287 -9 c-9 -15 -34 -10 -28 5 3 8 12 12 20 9 8 -3 11 -9 8 -14z m446 6 c-14
-17 -95 -21 -105 -5 -4 6 13 7 45 4 32 -4 50 -2 50 5 0 6 5 11 11 11 8 0 8 -5
-1 -15z m1000 5 c0 -5 -2 -10 -4 -10 -3 0 -8 5 -11 10 -3 6 -1 10 4 10 6 0 11
-4 11 -10z m-10 -36 c38 -44 39 -92 2 -105 -17 -7 -21 -6 -16 4 5 8 2 7 -9 -2
-9 -7 -17 -10 -17 -7 0 4 -6 4 -12 -1 -7 -4 -17 -8 -23 -10 -5 -1 -28 -9 -50
-17 -22 -8 -76 -19 -120 -25 -89 -13 -100 -8 -119 51 -6 17 -18 34 -26 36 -12
4 -13 2 -2 -9 15 -16 17 -58 1 -42 -10 10 -59 6 -59 -6 0 -4 -11 -7 -24 -7
-14 0 -22 4 -20 8 3 5 10 5 16 2 7 -4 8 -2 4 4 -8 14 -126 14 -126 1 0 -6 5
-7 10 -4 6 3 10 1 10 -5 0 -7 -6 -10 -14 -7 -7 3 -19 0 -25 -6 -12 -12 -16
-10 -25 18 -6 20 2 22 136 44 79 13 161 29 183 36 22 6 69 18 105 24 36 7 90
23 120 36 30 14 58 24 61 25 4 0 21 -16 39 -36z m-1952 -18 c30 6 149 -19 164
-34 17 -17 -6 -19 -42 -4 -70 31 -91 32 -104 6 -9 -17 -16 -19 -38 -12 -27 9
-44 44 -24 51 6 2 12 0 14 -4 2 -5 15 -6 30 -3z m237 -16 c3 -5 -3 -10 -15
-10 -12 0 -18 5 -15 10 3 6 10 10 15 10 5 0 12 -4 15 -10z m-143 -26 c-4 -10
-17 -8 -42 6 -10 6 -6 8 15 6 17 -2 28 -7 27 -12z m218 -13 c19 -5 82 -12 140
-15 58 -4 132 -10 165 -15 33 -5 195 -9 360 -9 278 0 300 -2 312 -19 8 -10 13
-31 11 -48 -3 -34 11 -31 -210 -41 l-127 -6 -5 23 c-14 70 -17 79 -25 79 -5 0
-6 -21 -3 -47 2 -27 1 -45 -3 -41 -4 4 -8 20 -9 34 -1 18 -7 28 -18 30 -10 1
-18 -2 -18 -8 0 -6 -6 -8 -13 -5 -8 3 -14 -1 -14 -9 0 -7 4 -11 8 -8 4 2 11
-1 15 -7 4 -8 3 -9 -4 -5 -7 4 -12 2 -12 -5 0 -7 -9 -3 -21 10 -19 20 -23 21
-38 7 -20 -18 -136 -17 -136 1 0 7 -6 18 -12 24 -7 7 -13 10 -13 6 0 -4 -10
-2 -22 5 -13 7 -27 11 -31 10 -5 -1 -6 2 -3 7 4 5 2 12 -3 15 -9 6 -27 -32
-33 -69 -4 -24 -47 -32 -88 -15 -16 7 -48 13 -72 15 -24 2 -44 4 -45 4 -2 1
-6 1 -9 0 -4 0 -10 3 -13 8 -8 11 -64 36 -57 25 3 -5 -1 -9 -9 -9 -8 0 -12 4
-9 9 3 4 1 8 -4 8 -6 0 -8 10 -5 23 12 53 12 54 73 38z m833 -18 c-7 -2 -21
-2 -30 0 -10 3 -4 5 12 5 17 0 24 -2 18 -5z m-319 -104 c-3 -5 -10 -7 -15 -3
-5 3 -7 10 -3 15 3 5 10 7 15 3 5 -3 7 -10 3 -15z"/>
<path d="M554 3875 c-23 -31 -118 -68 -161 -63 -17 2 -29 0 -27 -4 7 -11 62
-10 108 3 37 10 133 88 110 89 -6 0 -20 -11 -30 -25z"/>
<path d="M480 3774 c-22 -8 -28 -13 -15 -13 11 0 31 6 45 14 31 17 17 17 -30
-1z"/>
<path d="M1617 3009 c-18 -11 -25 -19 -17 -24 6 -4 19 2 28 12 9 10 25 17 35
15 9 -2 17 -1 17 1 0 14 -39 11 -63 -4z"/>
<path d="M1766 2988 c3 -5 10 -6 15 -3 13 9 11 12 -6 12 -8 0 -12 -4 -9 -9z"/>
<path d="M1746 2913 c-4 -9 4 -32 19 -55 28 -42 61 -50 89 -22 23 22 20 41
-10 69 -32 30 -88 34 -98 8z"/>
<path d="M2100 2939 c-11 -19 -7 -39 5 -27 7 7 15 48 10 48 -2 0 -9 -9 -15
-21z"/>
<path d="M2077 2943 c-4 -3 -7 -13 -7 -22 1 -13 3 -13 11 2 11 19 8 33 -4 20z"/>
<path d="M2131 2918 c-1 -11 6 -16 18 -15 11 0 17 5 15 9 -3 5 -9 6 -14 3 -4
-3 -11 1 -13 7 -4 8 -6 7 -6 -4z"/>
<path d="M1570 2546 c35 -37 68 -61 75 -54 3 2 -21 24 -53 48 l-57 43 35 -37z"/>
<path d="M986 2557 c3 -10 9 -15 12 -12 3 3 0 11 -7 18 -10 9 -11 8 -5 -6z"/>
<path d="M913 2340 c-58 -35 -52 -125 10 -150 12 -4 37 -20 56 -33 l33 -26 38
37 c20 20 51 50 69 65 36 33 39 54 10 91 -23 30 -45 33 -77 10 -21 -14 -24
-14 -48 5 -33 26 -50 26 -91 1z"/>
<path d="M760 2264 c0 -16 28 -50 35 -42 4 4 -2 17 -14 29 -12 13 -21 18 -21
13z"/>
<path d="M1211 2193 c-12 -14 -19 -28 -16 -31 5 -5 44 38 45 51 0 13 -8 7 -29
-20z"/>
<path d="M850 2155 c13 -14 28 -25 33 -25 6 0 0 11 -13 25 -13 14 -28 25 -33
25 -6 0 0 -11 13 -25z"/>
<path d="M1100 2101 c-14 -4 -20 -10 -15 -13 10 -6 55 7 55 17 0 6 -7 5 -40
-4z"/>
<path d="M969 2079 c13 -11 27 -17 30 -13 7 7 -28 34 -43 34 -6 -1 0 -10 13
-21z"/>
<path d="M2992 2158 c-18 -11 -31 -22 -28 -25 7 -7 66 26 66 37 0 12 2 13 -38
-12z"/>
<path d="M2712 2128 c8 -12 20 -24 27 -26 9 -3 7 5 -4 22 -10 14 -22 26 -27
26 -6 0 -4 -10 4 -22z"/>
<path d="M2830 2100 c0 -12 57 -13 64 -2 3 5 -10 9 -29 10 -19 1 -35 -3 -35
-8z"/>
<path d="M2005 2293 c3 -16 11 -32 17 -38 8 -7 9 -2 4 15 -3 14 -6 31 -6 38 0
6 -5 12 -11 12 -7 0 -9 -10 -4 -27z"/>
<path d="M2547 2297 c-4 -10 -7 -26 -7 -35 1 -15 2 -15 11 1 6 10 9 25 7 35
-3 16 -4 15 -11 -1z"/>
<path d="M2045 2190 c4 -14 12 -29 17 -35 7 -7 8 -2 3 15 -4 14 -12 30 -17 35
-7 7 -8 2 -3 -15z"/>
<path d="M2496 2169 c-11 -10 -17 -21 -14 -24 2 -3 15 6 28 20 27 29 14 33
-14 4z"/>
<path d="M2110 2113 c1 -10 39 -60 40 -51 0 14 -23 58 -32 58 -4 0 -8 -3 -8
-7z"/>
<path d="M2370 2080 c-12 -8 -12 -10 5 -9 11 0 29 4 40 9 18 8 18 9 -5 9 -14
0 -32 -4 -40 -9z"/>
<path d="M2225 2050 c3 -5 18 -10 33 -10 21 0 24 2 12 10 -20 13 -53 13 -45 0z"/>
<path d="M1330 2193 c0 -5 9 -19 20 -33 24 -32 38 -19 13 14 -18 25 -33 33
-33 19z"/>
<path d="M1836 2145 c-19 -29 -7 -33 18 -6 10 11 13 22 8 25 -6 3 -17 -5 -26
-19z"/>
<path d="M1432 2089 c5 -16 48 -44 48 -31 0 5 -12 17 -26 27 -17 11 -25 13
-22 4z"/>
<path d="M1728 2063 c-21 -5 -24 -23 -5 -23 7 0 22 7 33 15 20 15 9 18 -28 8z"/>
<path d="M1576 2041 c15 -14 54 -23 54 -13 0 11 -24 22 -48 22 -10 0 -12 -3
-6 -9z"/>
<path d="M3429 2146 c13 -16 51 -28 51 -17 0 7 -44 31 -57 31 -3 0 0 -6 6 -14z"/>
<path d="M1129 895 c-10 -9 -122 -20 -261 -24 -14 -1 -18 -10 -18 -44 0 -49
18 -64 80 -69 l35 -3 3 -133 c3 -144 5 -139 -56 -146 -43 -5 -49 -12 -54 -63
-3 -32 0 -43 11 -43 8 0 29 -11 47 -25 18 -14 41 -26 51 -28 10 -1 23 -5 28
-8 27 -15 46 -18 39 -6 -6 9 -5 9 7 0 9 -7 25 -14 37 -16 12 -2 25 -6 28 -10
4 -4 12 -7 18 -7 5 0 1 7 -10 16 -17 14 -17 15 -1 10 10 -3 15 -2 12 3 -8 13
-73 34 -84 27 -5 -4 -12 -2 -16 3 -3 6 -12 8 -19 5 -7 -3 -19 2 -26 11 -11 13
-6 15 44 16 31 1 61 3 66 4 6 1 29 3 51 4 l41 1 -7 48 c-8 54 -16 62 -67 62
-34 0 -37 2 -42 38 -3 20 -3 51 -2 67 2 17 5 59 5 95 1 36 5 71 10 78 4 8 32
17 62 20 53 7 54 7 60 47 9 51 -4 75 -40 75 -15 0 -30 -2 -32 -5z m59 -52 c3
-45 9 -42 -89 -58 l-37 -5 -7 -93 c-8 -117 -5 -205 9 -216 6 -5 29 -11 51 -13
35 -3 40 -6 47 -37 5 -18 7 -35 5 -37 -6 -7 -266 -6 -277 1 -5 3 -10 21 -10
39 0 31 2 34 40 39 66 9 68 12 66 158 -2 115 -5 133 -21 145 -10 7 -28 11 -40
8 -34 -8 -70 26 -61 59 6 26 10 27 69 27 74 1 160 9 196 21 45 13 56 7 59 -38z"/>
<path d="M1266 455 c4 -8 8 -15 10 -15 2 0 4 7 4 15 0 8 -4 15 -10 15 -5 0 -7
-7 -4 -15z"/>
<path d="M2565 2110 c-3 -5 -1 -10 4 -10 6 0 11 5 11 10 0 6 -2 10 -4 10 -3 0
-8 -4 -11 -10z"/>
<path d="M2107 446 c-4 -10 -1 -13 8 -9 8 3 12 9 9 14 -7 12 -11 11 -17 -5z"/>
<path d="M2110 420 c-20 -12 -5 -24 16 -12 9 5 12 12 7 15 -5 3 -15 2 -23 -3z"/>
<path d="M2100 321 c0 -11 9 -26 21 -34 20 -14 20 -16 2 -26 -10 -6 -13 -11
-7 -11 24 0 33 22 17 46 -12 19 -13 24 -2 24 11 0 11 2 -1 10 -22 14 -30 12
-30 -9z"/>
<path d="M2585 240 c-15 -5 -16 -8 -5 -15 9 -5 15 -4 18 3 2 7 8 10 12 7 5 -3
11 -2 14 3 6 10 -13 11 -39 2z"/>
<path d="M2235 190 c-3 -5 3 -10 15 -10 12 0 18 5 15 10 -3 6 -10 10 -15 10
-5 0 -12 -4 -15 -10z"/>
<path d="M1710 1750 c0 -13 7 -20 20 -20 13 0 20 7 20 20 0 13 -7 20 -20 20
-13 0 -20 -7 -20 -20z"/>
<path d="M1611 1731 c-15 -10 -8 -41 9 -41 15 0 25 29 14 40 -5 5 -15 5 -23 1z"/>
<path d="M1507 1676 c-10 -26 34 -49 48 -26 8 13 -13 40 -30 40 -7 0 -15 -6
-18 -14z m33 -16 c0 -5 -2 -10 -4 -10 -3 0 -8 5 -11 10 -3 6 -1 10 4 10 6 0
11 -4 11 -10z"/>
<path d="M1453 1604 c-9 -23 13 -40 32 -24 12 10 13 16 4 26 -15 18 -28 18
-36 -2z"/>
<path d="M1397 1406 c-6 -16 11 -36 30 -36 7 0 13 11 13 25 0 18 -5 25 -19 25
-10 0 -21 -6 -24 -14z"/>
<path d="M1693 1635 c-4 -5 -3 -7 2 -3 4 4 21 0 37 -8 27 -14 28 -14 17 3 -12
20 -47 25 -56 8z"/>
<path d="M1815 1640 c-3 -5 -1 -10 5 -10 6 0 8 -4 5 -10 -3 -6 1 -7 10 -4 12
5 13 9 4 20 -14 17 -16 17 -24 4z"/>
<path d="M1643 1594 c-33 -51 28 -87 70 -42 l22 24 -26 22 c-35 28 -45 28 -66
-4z"/>
<path d="M2213 1560 c-26 -11 -27 -14 -13 -41 13 -23 62 -26 80 -4 10 13 10
19 -5 35 -20 22 -29 23 -62 10z"/>
<path d="M1822 1510 c-10 -17 -9 -23 8 -40 21 -21 29 -23 54 -14 21 8 20 37
-2 57 -25 22 -44 21 -60 -3z"/>
<path d="M2128 1479 c-38 -21 -11 -74 34 -67 17 2 23 10 23 27 0 30 -33 54
-57 40z m52 -49 c0 -5 -5 -10 -11 -10 -5 0 -7 5 -4 10 3 6 8 10 11 10 2 0 4
-4 4 -10z"/>
<path d="M1628 1449 c-24 -13 -23 -56 1 -69 32 -16 51 -12 63 16 11 23 10 29
-11 45 -27 22 -30 22 -53 8z"/>
<path d="M1491 1349 c-1 -31 4 -51 15 -60 14 -12 15 -9 10 22 -3 20 -10 46
-15 60 -8 21 -10 18 -10 -22z"/>
<path d="M2340 1335 c-19 -23 13 -67 47 -63 38 4 52 32 29 57 -22 25 -58 27
-76 6z"/>
<path d="M1592 1288 c-21 -21 -14 -58 14 -70 22 -10 28 -10 40 6 23 32 -27 91
-54 64z"/>
<path d="M1510 1243 c1 -12 29 -47 34 -42 7 7 -13 49 -24 49 -5 0 -10 -3 -10
-7z"/>
<path d="M2246 1204 c-19 -19 -20 -25 -3 -48 19 -26 61 -18 65 12 7 44 -32 67
-62 36z"/>
<path d="M2370 1185 c-7 -9 -11 -18 -8 -20 3 -3 11 1 18 10 7 9 11 18 8 20 -3
3 -11 -1 -18 -10z"/>
<path d="M1573 1162 c-10 -6 -9 -13 3 -30 20 -29 38 -29 22 1 -7 12 -11 25
-10 30 3 9 0 9 -15 -1z"/>
<path d="M2310 1107 c-17 -14 -24 -37 -12 -37 10 0 42 33 42 43 0 10 -13 8
-30 -6z"/>
<path d="M1652 1040 c17 -26 35 -32 42 -14 3 8 2 13 -3 10 -5 -3 -14 1 -21 9
-18 22 -32 18 -18 -5z"/>
<path d="M2544 1505 c-7 -18 3 -35 21 -35 21 0 28 19 15 35 -16 19 -29 19 -36
0z m26 -15 c0 -5 -2 -10 -4 -10 -3 0 -8 5 -11 10 -3 6 -1 10 4 10 6 0 11 -4
11 -10z"/>
<path d="M3710 1443 c0 -5 11 -16 25 -23 14 -7 37 -33 51 -58 14 -24 28 -41
31 -38 11 10 -43 88 -74 108 -18 11 -33 16 -33 11z"/>
<path d="M1904 1350 c-31 -12 -72 -65 -85 -110 -16 -51 8 -116 57 -160 28 -24
44 -30 81 -30 96 0 173 63 173 143 0 107 -129 197 -226 157z m111 -19 c65 -30
105 -86 105 -147 0 -38 -66 -101 -121 -115 -40 -11 -51 -10 -85 7 -107 52
-109 203 -3 256 42 22 54 22 104 -1z"/>
<path d="M1894 1276 c-3 -8 4 -25 15 -37 25 -27 26 -38 6 -45 -8 -4 -15 -12
-15 -19 0 -16 35 -29 51 -19 6 3 29 1 51 -7 37 -12 42 -11 54 6 12 16 11 21
-5 37 -15 13 -18 26 -14 51 4 26 1 36 -12 41 -21 8 -35 0 -35 -20 0 -19 -12
-18 -38 6 -25 24 -50 26 -58 6z"/>
<path d="M2523 1294 c-3 -8 -1 -20 6 -27 14 -14 47 15 37 32 -10 16 -36 13
-43 -5z"/>
<path d="M2474 1216 c-8 -21 3 -36 27 -36 15 0 20 6 17 22 -4 27 -35 37 -44
14z m36 -17 c0 -5 -7 -9 -15 -9 -15 0 -20 12 -9 23 8 8 24 -1 24 -14z"/>
<path d="M2420 1125 c-6 -8 -9 -19 -5 -25 10 -16 42 -12 49 6 12 32 -21 47
-44 19z m30 -9 c0 -3 -4 -8 -10 -11 -5 -3 -10 -1 -10 4 0 6 5 11 10 11 6 0 10
-2 10 -4z"/>
<path d="M2347 1043 c-12 -12 -7 -43 7 -43 18 0 39 27 31 40 -7 11 -28 13 -38
3z"/>
<path d="M2273 973 c-7 -2 -13 -14 -13 -25 0 -14 6 -19 23 -16 14 2 22 10 22
22 0 21 -12 28 -32 19z"/>
<path d="M1544 1045 c-8 -21 10 -39 30 -32 22 9 20 24 -4 37 -16 9 -22 8 -26
-5z"/>
<path d="M1607 993 c-15 -14 -7 -43 12 -43 26 0 36 17 21 35 -14 16 -23 19
-33 8z"/>
<path d="M1880 766 c0 -7 7 -19 15 -26 19 -16 41 1 32 24 -8 20 -47 21 -47 2z"/>
<path d="M2991 664 c-12 -27 -11 -28 4 -12 10 9 16 21 13 28 -2 7 -10 -1 -17
-16z"/>
<path d="M2552 373 c3 -32 32 -43 42 -16 5 11 1 22 -10 30 -27 20 -36 16 -32
-14z m28 -3 c0 -5 -4 -10 -10 -10 -5 0 -10 5 -10 10 0 6 5 10 10 10 6 0 10 -4
10 -10z"/>
<path d="M1055 230 c3 -5 8 -10 11 -10 2 0 4 5 4 10 0 6 -5 10 -11 10 -5 0 -7
-4 -4 -10z"/>
</g>
</svg>
